<?xml version="1.0" encoding="UTF-8" standalone="no"?>
<svg width="128" height="128" viewBox="0 0 128 128" xmlns="http://www.w3.org/2000/svg">
  <rect width="128" height="128" rx="14" fill="#C80000"/>
  <g fill="#FFFFFF">
    <!-- Code files representation (stacked) -->
    <rect x="24" y="24" width="80" height="12" rx="2"/>
    <rect x="24" y="40" width="80" height="12" rx="2"/>
    <rect x="24" y="56" width="80" height="12" rx="2"/>
    <rect x="24" y="72" width="80" height="12" rx="2"/>
    
    <!-- Down arrow -->
    <polygon points="64,92 78,78 70,78 70,64 58,64 58,78 50,78" />
    
    <!-- Flattened file -->
    <rect x="34" y="96" width="60" height="8" rx="2"/>
  </g>
  
  <!-- Code symbols -->
  <g fill="#C80000">
    <text x="35" y="33" font-family="Courier" font-size="10">&lt;/&gt;</text>
    <text x="70" y="33" font-family="Courier" font-size="10">{ }</text>
    <text x="35" y="49" font-family="Courier" font-size="10">def()</text>
    <text x="70" y="49" font-family="Courier" font-size="10">class</text>
    <text x="35" y="65" font-family="Courier" font-size="10">import</text>
    <text x="70" y="65" font-family="Courier" font-size="10">npm</text>
    <text x="35" y="81" font-family="Courier" font-size="10">build</text>
    <text x="70" y="81" font-family="Courier" font-size="10">run</text>
    
    <!-- Flattened markdown -->
    <text x="46" y="103" font-family="Courier" font-size="8"># Markdown</text>
  </g>
</svg>
